<svg version="1.1" id="Layer_1" xmlns="http://www.w3.org/2000/svg" xmlns:xlink="http://www.w3.org/1999/xlink" x="0px" y="0px"
	 width="100%" viewBox="0 0 372 372" enable-background="new 0 0 372 372" xml:space="preserve">
<path fill="#F9F9F8" opacity="1.000000" stroke="none" 
	d="
M373.000000,140.000000 
	C373.000000,217.999969 373.000000,295.499939 373.000000,372.999939 
	C249.000076,372.999939 125.000145,372.999939 1.000162,372.999969 
	C1.000108,249.000122 1.000108,125.000237 1.000054,1.000262 
	C124.999840,1.000175 248.999680,1.000175 372.999756,1.000087 
	C373.000000,47.166668 373.000000,93.333336 373.000000,140.000000 
M77.631927,304.772034 
	C77.631927,304.772034 78.019943,305.015106 78.202721,305.720947 
	C79.148170,305.813080 80.093613,305.905212 81.597923,306.595795 
	C80.382065,308.966705 77.833710,311.289795 81.213692,313.857269 
	C81.632347,314.175293 82.392555,314.043610 83.156502,314.140930 
	C82.680687,312.972687 82.324196,312.097443 81.958382,311.199249 
	C83.355232,311.260406 84.360100,311.304382 85.354469,311.347900 
	C85.354469,309.367126 85.354469,307.809052 85.354469,306.319153 
	C83.683960,306.222260 82.326759,306.143524 80.976311,305.418854 
	C80.195900,303.592346 79.415489,301.765839 78.859970,300.465698 
	C76.192535,301.616058 74.580055,302.311462 72.520988,302.255585 
	C73.289703,300.990356 74.120934,299.757996 74.808990,298.450317 
	C75.456497,297.219696 75.953026,295.909637 76.515976,294.634521 
	C75.081100,294.105560 72.955917,292.712189 72.337700,293.205872 
	C70.288490,294.842346 68.782158,297.158569 67.067558,299.214050 
	C68.737892,300.098358 70.424843,300.953461 72.066399,301.888306 
	C72.458046,302.111328 72.697998,302.600739 73.714394,303.423401 
	C73.524284,304.397980 73.334183,305.372559 72.965034,307.265015 
	C74.939804,305.989899 76.110199,305.234161 77.631927,304.772034 
M60.537907,281.672668 
	C58.811707,284.427887 57.085506,287.183075 54.642521,291.082336 
	C58.279606,289.657928 60.907951,288.628601 63.115143,287.764191 
	C62.554008,286.105194 62.257378,285.241364 61.969757,284.374542 
	C61.595478,283.246552 61.228359,282.116241 61.149021,280.322479 
	C61.131241,279.305420 61.113457,278.288361 61.095680,277.271301 
	C58.960495,278.561493 56.696754,279.689819 54.759277,281.228882 
	C54.073715,281.773468 54.183899,283.319794 53.917313,284.466736 
	C56.408016,283.057587 58.255287,282.012451 60.537907,281.672668 
M53.850792,270.873016 
	C53.644176,270.694702 53.437557,270.516418 53.478867,269.773895 
	C53.134300,269.231201 52.789734,268.688507 52.445168,268.145813 
	C50.648384,270.055725 48.851604,271.965637 47.054821,273.875519 
	C47.339828,274.318420 47.624836,274.761322 47.909843,275.204224 
	C50.346573,274.681641 52.783306,274.159058 55.220028,273.636444 
	C54.950161,272.914490 54.680294,272.192566 53.850792,270.873016 
M159.096146,345.075012 
	C158.958801,343.312988 158.821457,341.550964 158.684097,339.788940 
	C158.394028,339.751129 158.103943,339.713318 157.813873,339.675507 
	C157.395264,340.596558 156.976654,341.517639 156.025970,342.009979 
	C155.847382,341.868591 155.668793,341.727234 155.360229,340.944519 
	C155.028687,340.389160 154.697144,339.833832 154.365616,339.278473 
	C153.820496,341.230896 153.050949,343.160126 152.845520,345.147644 
	C152.768066,345.896912 154.149902,347.549561 154.600952,347.459534 
	C155.948135,347.190704 157.149231,346.232849 158.438370,345.608002 
	C158.934036,345.367767 159.513260,345.299927 160.157715,345.987274 
	C161.807053,347.127625 163.456390,348.267944 165.105728,349.408295 
	C165.668365,348.895630 166.230988,348.382965 166.793610,347.870300 
	C165.955643,345.424316 165.184097,342.950043 164.174286,340.577148 
	C164.076096,340.346405 162.506226,340.741913 160.949371,340.925903 
	C162.478256,341.915161 163.179581,342.368927 164.049881,342.932068 
	C162.434570,343.894226 161.215408,344.620422 159.096146,345.075012 
M279.187622,306.963959 
	C278.389832,306.756042 277.498535,306.217621 276.814362,306.411224 
	C275.518219,306.777924 273.244171,307.721344 273.305389,308.149353 
	C273.561157,309.938202 274.247986,311.850861 275.361755,313.253784 
	C275.924194,313.962219 278.509918,314.208252 278.828156,313.741364 
	C279.621033,312.578186 279.760773,310.900238 279.927246,309.402771 
	C280.049164,308.306244 279.797516,307.168121 280.323334,306.540985 
	C281.377808,307.401611 282.432251,308.262238 283.486694,309.122864 
	C283.475128,308.593719 283.463562,308.064575 283.451996,307.535431 
	C284.688354,306.977081 285.924683,306.418732 287.754730,305.592255 
	C285.676208,303.648346 283.782257,301.877075 281.888306,300.105774 
	C281.252502,300.243561 280.616730,300.381317 279.980927,300.519104 
	C279.940765,302.411713 279.900574,304.304321 279.187622,306.963959 
M124.754387,337.009125 
	C124.414459,338.804626 124.074532,340.600128 123.597206,343.121399 
	C125.372551,341.871094 126.430473,340.502441 127.325157,340.601898 
	C131.625031,341.079987 132.183365,337.867035 132.016342,335.274048 
	C131.927841,333.899994 129.320480,332.688141 128.308289,331.803467 
	C126.337341,333.974731 125.150230,335.282471 123.782761,335.760223 
	C123.278214,333.255890 122.773674,330.751526 122.212860,327.967896 
	C121.685425,328.038208 120.923172,328.139832 120.160919,328.241425 
	C120.608170,330.506165 121.055420,332.770905 121.566628,335.359497 
	C120.561401,335.514435 119.489166,335.679718 118.416939,335.845001 
	C118.493172,336.391418 118.569405,336.937836 118.645638,337.484222 
	C120.433311,337.155365 122.220985,336.826538 124.754387,337.009125 
M249.880005,166.760117 
	C249.588165,165.982162 249.302109,165.201981 249.003662,164.426575 
	C235.730194,129.943024 199.279846,111.055473 163.622116,120.183159 
	C128.845581,129.085297 105.292625,163.232361 110.300125,198.825714 
	C114.352875,227.632751 130.375183,248.050659 157.864716,257.659790 
	C185.301117,267.250397 210.730835,261.716461 231.691574,241.421127 
	C252.870667,220.914352 257.939270,195.645874 249.880005,166.760117 
M222.508606,57.101402 
	C225.407104,53.052753 228.305588,49.004105 231.204086,44.955456 
	C231.631317,45.204094 232.058548,45.452728 232.485794,45.701366 
	C231.887787,49.255669 231.665161,52.929443 230.582977,56.329643 
	C229.562607,59.535641 227.637222,62.453594 226.005417,65.706612 
	C229.714279,66.310738 233.160645,66.872116 236.607025,67.433487 
	C231.650116,60.878395 235.948807,55.462444 236.624588,50.342617 
	C237.286301,45.329266 236.488480,38.965042 244.789612,37.455036 
	C234.543808,33.288078 234.543045,33.287575 229.491638,40.900669 
	C228.571091,42.288013 227.692596,43.704510 226.736801,45.066940 
	C224.935394,47.634727 223.091827,50.172955 221.265778,52.723469 
	C219.933578,46.275188 219.605011,40.350903 219.267105,34.427151 
	C218.990036,29.569752 213.808502,26.594925 208.454300,28.664984 
	C212.611496,31.097368 211.605240,34.302662 210.011292,37.527035 
	C206.631302,44.364437 206.385956,52.822834 198.158051,58.222752 
	C202.781464,58.981140 206.112488,59.527531 209.443497,60.073921 
	C206.492432,56.033325 208.859024,45.062756 213.849396,38.744774 
	C215.507156,46.833439 214.396622,55.426109 216.221664,63.594913 
	C216.799561,63.636848 217.377457,63.678783 217.955368,63.720718 
	C219.346970,61.718231 220.738571,59.715740 222.508606,57.101402 
M85.835388,94.289536 
	C87.130104,93.567802 88.518288,92.973297 89.703560,92.102577 
	C95.185844,88.075218 97.285461,79.929115 94.665237,73.183121 
	C91.834892,65.896156 84.345917,60.758488 77.812607,61.621693 
	C69.033684,62.781601 62.948345,71.255959 64.582634,80.045547 
	C66.518723,90.458260 75.581192,96.850220 85.835388,94.289536 
M309.804138,150.692917 
	C313.850250,156.490417 313.850250,156.490417 323.947418,152.626190 
	C321.340149,151.624878 319.874176,151.252930 318.605133,150.533600 
	C316.176514,149.156982 312.624298,148.058167 311.819550,145.966400 
	C310.881958,143.529556 311.507965,139.568390 313.012024,137.301407 
	C316.448395,132.121964 322.009064,130.233337 328.186066,130.672241 
	C332.712952,130.993896 335.131592,134.229767 335.654358,138.122040 
	C335.957458,140.378738 334.125214,142.922256 333.253876,145.336700 
	C333.574554,148.338623 333.574554,148.338623 341.882446,145.127960 
	C341.385284,142.980026 340.990509,140.727493 340.339050,138.551804 
	C337.061096,127.604057 326.834381,122.557625 316.481598,126.719704 
	C306.466217,130.746140 303.972198,138.998642 309.804138,150.692917 
M24.821953,126.270493 
	C23.809307,130.564194 21.974541,134.856567 21.967693,139.151871 
	C21.956062,146.447815 28.900850,152.774521 37.021900,154.071381 
	C43.731327,155.142807 50.176937,152.029480 52.499428,145.940689 
	C54.003971,141.996292 54.601269,137.705841 55.600315,133.590088 
	C52.308353,131.884918 49.732483,130.550674 47.156612,129.216415 
	C46.808758,129.447952 46.460903,129.679489 46.113052,129.911026 
	C46.607265,131.176712 46.772358,132.778595 47.657406,133.645065 
	C50.311909,136.243805 52.011349,139.517471 49.838070,142.487869 
	C48.015800,144.978516 44.567871,147.620605 41.750526,147.722198 
	C37.715305,147.867706 33.206688,146.453888 29.625145,144.425690 
	C25.887957,142.309357 24.150858,138.388550 25.828217,133.653366 
	C27.410387,129.186890 30.326521,127.906082 34.993889,129.972656 
	C34.934536,124.039017 29.585718,124.873207 27.353464,121.807159 
	C26.424694,123.362915 25.760822,124.474953 24.821953,126.270493 
M146.233612,48.006210 
	C148.789520,48.951378 152.568619,49.194599 151.786133,52.978165 
	C151.393280,54.877785 148.991852,57.068722 147.010727,57.793064 
	C142.174149,59.561424 140.357330,55.823330 139.061020,51.781891 
	C138.145584,52.230965 137.270004,52.364876 137.079498,52.799248 
	C134.964294,57.622063 138.436447,62.701530 143.533600,61.905109 
	C146.583008,61.428646 149.704926,60.417461 152.401382,58.932999 
	C155.795609,57.064392 157.571472,53.901844 157.115829,49.752277 
	C156.653763,45.544262 153.665466,43.965160 150.201370,42.925392 
	C147.346252,42.068409 144.228714,41.825329 141.611481,40.532684 
	C140.011505,39.742455 138.288895,37.518318 138.220398,35.871651 
	C138.170624,34.675159 140.541809,32.928516 142.177780,32.196621 
	C146.858826,30.102448 148.303696,33.975422 149.858109,37.402443 
	C150.257065,37.273281 150.656006,37.144115 151.054962,37.014950 
	C151.054962,33.827820 151.054962,30.640690 151.054962,27.440983 
	C142.644089,27.452076 138.584747,28.879313 135.074554,32.840111 
	C131.234192,37.173450 132.209412,42.773666 137.438187,45.199463 
	C139.972321,46.375134 142.766220,46.990921 146.233612,48.006210 
M285.797333,86.320892 
	C290.736420,82.534592 293.267029,75.262985 301.556915,75.205025 
	C298.416962,72.363075 295.277008,69.521126 292.137054,66.679184 
	C293.306641,74.798584 286.881531,77.191360 283.594238,81.079201 
	C280.057892,85.261566 276.967743,90.716667 268.485046,89.110710 
	C272.179901,92.448326 274.428101,94.594116 276.811005,96.578056 
	C277.840088,97.434875 279.147705,97.957191 280.328796,98.631470 
	C280.140839,97.455734 279.733551,96.262543 279.825378,95.109062 
	C279.921112,93.906212 280.229950,92.544518 280.922546,91.603157 
	C282.193787,89.875282 283.815186,88.405006 285.797333,86.320892 
M204.893814,344.799225 
	C205.258987,345.416626 205.624161,346.034027 205.989334,346.651428 
	C203.935883,343.692749 201.723999,340.838593 199.371140,338.105865 
	C199.269531,337.987885 197.163132,339.028015 197.187561,339.461151 
	C197.353790,342.407623 197.841415,345.335968 198.132828,347.563446 
	C200.546082,346.422974 202.364243,345.563721 204.893814,344.799225 
M295.765198,284.182922 
	C293.224152,287.869751 295.820984,289.692230 298.613098,290.827789 
	C299.544586,291.206635 302.227722,289.920898 302.401428,289.053864 
	C303.080078,285.665710 300.816589,284.032349 297.741852,283.424072 
	C297.318573,283.340332 296.811768,283.678650 295.765198,284.182922 
M26.275660,194.993301 
	C27.899769,196.023590 29.432825,197.382568 31.206242,197.873825 
	C31.705803,198.012192 33.682392,195.538162 33.580612,194.386139 
	C33.472176,193.158707 31.425009,190.974838 30.715370,191.153976 
	C29.038074,191.577377 27.652134,193.154999 26.275660,194.993301 
M327.839966,197.426514 
	C332.039642,198.477493 334.620331,197.085663 333.585968,194.120544 
	C333.113281,192.765549 330.821228,191.002502 329.572021,191.159256 
	C326.013824,191.605743 325.925323,194.193924 327.839966,197.426514 
M86.971169,313.543365 
	C86.280190,314.557526 85.589218,315.571686 85.059258,316.349518 
	C86.735123,317.606689 88.068222,318.606689 90.229172,320.227753 
	C90.061943,316.813782 95.861580,315.708282 91.627327,311.585968 
	C89.021088,309.048615 88.476021,311.590179 86.971169,313.543365 
M324.813232,240.271759 
	C325.751068,240.271759 326.688904,240.271759 327.626770,240.271759 
	C327.671021,239.977585 327.715271,239.683395 327.759552,239.389221 
	C325.944031,238.506577 324.128510,237.623932 322.312988,236.741287 
	C322.409302,236.513458 322.505585,236.285629 322.601898,236.057800 
	C324.542755,236.344116 326.483643,236.630417 328.424500,236.916718 
	C328.532318,236.447418 328.640137,235.978104 328.747986,235.508789 
	C326.314423,234.794098 323.880859,234.079407 321.112457,233.266373 
	C320.583740,235.390594 320.205872,236.908844 319.757263,238.711212 
	C321.328888,239.207596 322.703827,239.641861 324.813232,240.271759 
M103.695572,325.971680 
	C104.195709,324.330414 104.695847,322.689117 105.315231,320.656494 
	C99.163406,317.092804 101.567307,325.538269 98.085258,325.554932 
	C98.226273,326.082611 98.367287,326.610321 98.508301,327.138031 
	C100.147064,326.974487 101.785828,326.810974 103.695572,325.971680 
M47.241749,257.304321 
	C46.985149,256.320557 46.728550,255.336792 46.269894,253.578369 
	C45.439304,255.176956 45.030872,255.963028 45.049934,255.926346 
	C42.858582,255.725143 41.188515,255.571808 39.518444,255.418472 
	C39.783630,257.268829 40.048813,259.119202 40.384750,261.463287 
	C43.194672,259.906281 45.038876,258.884369 47.241749,257.304321 
M180.866669,348.307220 
	C180.548264,346.662170 180.200256,345.022095 179.920547,343.370514 
	C179.685699,341.983704 179.530411,340.583435 179.339890,339.189117 
	C178.499420,339.316559 177.658966,339.444031 176.818497,339.571472 
	C177.200378,342.670624 177.520401,345.781128 178.083893,348.846893 
	C178.128021,349.086975 179.871384,349.014771 180.866669,348.307220 
M186.537292,344.094666 
	C185.195267,343.305481 183.853241,342.516296 182.316711,341.612701 
	C182.878082,345.155975 183.424088,348.602264 184.010986,352.306702 
	C186.973083,350.554596 187.388000,347.658600 186.537292,344.094666 
M170.945145,348.573517 
	C170.945145,344.993683 170.945145,341.413849 170.945145,337.834015 
	C170.287979,337.807587 169.630814,337.781189 168.973648,337.754791 
	C168.728333,341.165405 168.397324,344.574738 168.346039,347.988251 
	C168.339615,348.415436 169.811066,348.864838 170.945145,348.573517 
M265.186493,312.524139 
	C261.196350,316.405518 267.263153,316.762939 267.678619,319.183105 
	C267.763153,319.675568 270.060547,319.788208 271.990692,320.222992 
	C269.323547,317.000519 267.604584,314.923645 265.186493,312.524139 
M32.058102,236.673691 
	C32.128922,237.755646 32.199741,238.837616 32.270561,239.919571 
	C34.162884,234.148849 38.389015,235.837189 42.328728,236.521591 
	C39.484322,232.336319 37.501713,232.337616 32.058102,236.673691 
M320.058777,255.063171 
	C317.550507,254.213104 315.042236,253.363037 312.533997,252.512985 
	C312.281189,253.311783 312.028412,254.110596 311.775604,254.909409 
	C314.708954,255.659393 317.642273,256.409393 320.575623,257.159363 
	C320.621246,256.376099 320.666901,255.592834 320.058777,255.063171 
M311.312775,259.505280 
	C313.084595,260.956940 314.755798,262.586731 316.720612,263.696777 
	C317.075958,263.897491 318.636414,261.965088 319.640503,261.017456 
	C315.681427,261.826721 313.065460,261.843475 313.312622,256.031921 
	C312.210571,257.579681 311.772491,258.194916 311.312775,259.505280 
z"/>
<path fill="#050E3F" opacity="1.000000" stroke="none" 
	d="
M249.974228,167.146118 
	C257.939270,195.645874 252.870667,220.914352 231.691574,241.421127 
	C210.730835,261.716461 185.301117,267.250397 157.864716,257.659790 
	C130.375183,248.050659 114.352875,227.632751 110.300125,198.825714 
	C105.292625,163.232361 128.845581,129.085297 163.622116,120.183159 
	C199.279846,111.055473 235.730194,129.943024 249.003662,164.426575 
	C249.302109,165.201981 249.588165,165.982162 249.974228,167.146118 
M189.155304,180.581451 
	C188.702591,180.777603 188.249878,180.973770 187.797150,181.169922 
	C191.941681,184.082962 189.533035,188.208099 189.975555,191.743011 
	C189.479324,191.996384 189.198196,192.241684 188.890411,192.281662 
	C184.983810,192.789017 182.343765,195.044617 183.310638,198.869003 
	C183.771545,200.692108 186.886368,202.959991 188.885193,203.046951 
	C193.083130,203.229584 194.077591,199.825516 194.047943,196.101456 
	C193.987076,188.449432 194.021164,180.796600 194.031067,173.144119 
	C194.035339,169.837906 192.831284,168.456467 189.429367,169.952026 
	C185.334641,171.752167 181.275711,173.733780 177.016800,175.031342 
	C173.006851,176.253052 172.089844,178.644684 172.262207,182.445892 
	C172.516342,188.050262 172.327805,193.674713 172.327805,199.314194 
	C171.044357,199.642700 170.230591,199.767471 169.480804,200.057632 
	C166.519638,201.203506 164.279327,203.425278 165.769455,206.447891 
	C166.704773,208.345123 169.741058,210.501175 171.570358,210.286682 
	C173.283615,210.085770 175.777908,207.019333 175.960464,205.033066 
	C176.567795,198.425537 176.221649,191.734879 176.392700,185.079987 
	C176.443726,183.094986 176.342377,179.966629 177.431335,179.354111 
	C181.212738,177.227066 185.486481,175.975311 189.572952,174.390625 
	C189.731689,174.628281 189.890427,174.865936 190.049179,175.103592 
	C189.242264,175.985260 188.435349,176.866943 188.153336,177.175079 
	C188.753616,178.312592 189.216339,179.189468 189.155304,180.581451 
M216.066757,204.457016 
	C216.019226,205.476089 215.971695,206.495148 215.924164,207.514221 
	C216.890259,207.104172 218.189896,206.962082 218.769043,206.241165 
	C222.976990,201.003357 225.198441,195.002808 224.896255,188.228836 
	C224.619385,182.022461 222.715012,176.498032 217.658569,172.378616 
	C218.531036,177.752106 220.602966,182.812119 221.408875,188.066330 
	C222.297180,193.857697 220.015427,199.177277 216.066757,204.457016 
M141.937302,192.084641 
	C143.227356,185.505173 144.517395,178.925705 145.927170,171.735580 
	C139.935822,176.257751 138.426605,182.647995 138.469589,189.119614 
	C138.517776,196.370758 140.447357,203.296753 147.911133,207.346893 
	C145.946243,202.547913 143.981354,197.748932 141.937302,192.084641 
M217.254822,192.653183 
	C216.624512,188.483154 216.295273,184.230881 215.191544,180.190170 
	C214.832092,178.874207 212.451309,178.110397 210.995041,177.094055 
	C211.038574,178.707153 210.562363,180.579483 211.215317,181.888611 
	C214.087738,187.647629 213.728073,193.026672 210.311310,198.400162 
	C209.539581,199.613846 209.296051,201.163391 208.424942,203.660294 
	C214.923737,202.013611 215.859375,197.583801 217.254822,192.653183 
M150.047516,188.581329 
	C150.937378,185.933258 151.962433,183.319641 152.650421,180.620132 
	C152.924957,179.542984 152.455124,178.276108 152.324127,177.095612 
	C151.200623,177.571854 149.742798,177.749527 149.007660,178.572632 
	C144.109421,184.056976 144.984528,197.178314 150.584457,201.975586 
	C151.336716,202.620041 152.846359,202.380371 154.005295,202.550110 
	C153.957932,201.528366 154.141861,200.426819 153.821823,199.499130 
	C152.650040,196.102570 151.310501,192.763855 150.047516,188.581329 
M209.891937,193.332092 
	C209.569946,190.109894 209.525711,186.819977 208.765930,183.704544 
	C208.520645,182.698776 206.394684,182.151688 205.129044,181.394775 
	C204.655151,182.747040 203.963715,184.066299 203.752533,185.458420 
	C203.308517,188.385162 203.042084,191.345474 202.855530,194.301636 
	C202.773453,195.602234 203.064529,196.926407 203.186172,198.239868 
	C204.663116,197.982132 206.358627,198.082489 207.549347,197.355759 
	C208.539932,196.751175 208.937408,195.174805 209.891937,193.332092 
M228.555405,179.292786 
	C232.303375,191.195206 228.780197,201.768890 222.030762,211.753036 
	C230.609863,205.655243 234.297867,191.310257 230.719925,179.426071 
	C230.011841,177.074112 228.455719,174.977463 227.290680,172.763092 
	C226.842773,173.067917 226.394852,173.372742 225.946945,173.677567 
	C226.719818,175.298355 227.492691,176.919144 228.555405,179.292786 
M159.952637,183.825836 
	C158.704956,179.959702 156.842209,180.493286 154.892593,183.221298 
	C152.048370,187.201111 152.386017,193.368515 155.840775,196.951569 
	C156.722748,197.866241 158.487244,197.929962 159.846283,198.384644 
	C160.000946,196.934830 160.301102,195.482925 160.280350,194.035629 
	C160.235367,190.899017 160.026215,187.764740 159.952637,183.825836 
M135.238632,201.013336 
	C134.702942,198.460052 133.998764,195.927582 133.680283,193.347488 
	C133.379196,190.908463 133.352295,188.414413 133.446304,185.953796 
	C133.538589,183.538452 133.934937,181.134720 134.197845,178.725891 
	C129.378387,185.580658 131.663818,205.255234 139.749817,210.275620 
	C138.027130,206.801208 136.776550,204.278915 135.238632,201.013336 
z"/>
<path fill="#FF6C13" opacity="1.000000" stroke="none" 
	d="
M222.319397,57.407326 
	C220.738571,59.715740 219.346970,61.718231 217.955368,63.720718 
	C217.377457,63.678783 216.799561,63.636848 216.221664,63.594913 
	C214.396622,55.426109 215.507156,46.833439 213.849396,38.744774 
	C208.859024,45.062756 206.492432,56.033325 209.443497,60.073921 
	C206.112488,59.527531 202.781464,58.981140 198.158051,58.222752 
	C206.385956,52.822834 206.631302,44.364437 210.011292,37.527035 
	C211.605240,34.302662 212.611496,31.097368 208.454300,28.664984 
	C213.808502,26.594925 218.990036,29.569752 219.267105,34.427151 
	C219.605011,40.350903 219.933578,46.275188 221.265778,52.723469 
	C223.091827,50.172955 224.935394,47.634727 226.736801,45.066940 
	C227.692596,43.704510 228.571091,42.288013 229.491638,40.900669 
	C234.543045,33.287575 234.543808,33.288078 244.789612,37.455036 
	C236.488480,38.965042 237.286301,45.329266 236.624588,50.342617 
	C235.948807,55.462444 231.650116,60.878395 236.607025,67.433487 
	C233.160645,66.872116 229.714279,66.310738 226.005417,65.706612 
	C227.637222,62.453594 229.562607,59.535641 230.582977,56.329643 
	C231.665161,52.929443 231.887787,49.255669 232.485794,45.701366 
	C232.058548,45.452728 231.631317,45.204094 231.204086,44.955456 
	C228.305588,49.004105 225.407104,53.052753 222.319397,57.407326 
z"/>
<path fill="#FF6D14" opacity="1.000000" stroke="none" 
	d="
M85.483231,94.414177 
	C75.581192,96.850220 66.518723,90.458260 64.582634,80.045547 
	C62.948345,71.255959 69.033684,62.781601 77.812607,61.621693 
	C84.345917,60.758488 91.834892,65.896156 94.665237,73.183121 
	C97.285461,79.929115 95.185844,88.075218 89.703560,92.102577 
	C88.518288,92.973297 87.130104,93.567802 85.483231,94.414177 
M69.160995,72.237564 
	C66.101837,79.639572 74.977821,89.026268 81.757774,90.088959 
	C87.856232,91.044815 93.352402,85.525391 91.597992,79.819283 
	C89.879028,74.228424 86.377907,69.814476 80.628410,67.764069 
	C76.038216,66.127090 72.146111,67.010300 69.160995,72.237564 
z"/>
<path fill="#FF6E16" opacity="1.000000" stroke="none" 
	d="
M309.618652,150.367676 
	C303.972198,138.998642 306.466217,130.746140 316.481598,126.719704 
	C326.834381,122.557625 337.061096,127.604057 340.339050,138.551804 
	C340.990509,140.727493 341.385284,142.980026 341.882446,145.127960 
	C333.574554,148.338623 333.574554,148.338623 333.253876,145.336700 
	C334.125214,142.922256 335.957458,140.378738 335.654358,138.122040 
	C335.131592,134.229767 332.712952,130.993896 328.186066,130.672241 
	C322.009064,130.233337 316.448395,132.121964 313.012024,137.301407 
	C311.507965,139.568390 310.881958,143.529556 311.819550,145.966400 
	C312.624298,148.058167 316.176514,149.156982 318.605133,150.533600 
	C319.874176,151.252930 321.340149,151.624878 323.947418,152.626190 
	C313.850250,156.490417 313.850250,156.490417 309.618652,150.367676 
z"/>
<path fill="#FF6B12" opacity="1.000000" stroke="none" 
	d="
M24.959452,125.928741 
	C25.760822,124.474953 26.424694,123.362915 27.353464,121.807159 
	C29.585718,124.873207 34.934536,124.039017 34.993889,129.972656 
	C30.326521,127.906082 27.410387,129.186890 25.828217,133.653366 
	C24.150858,138.388550 25.887957,142.309357 29.625145,144.425690 
	C33.206688,146.453888 37.715305,147.867706 41.750526,147.722198 
	C44.567871,147.620605 48.015800,144.978516 49.838070,142.487869 
	C52.011349,139.517471 50.311909,136.243805 47.657406,133.645065 
	C46.772358,132.778595 46.607265,131.176712 46.113052,129.911026 
	C46.460903,129.679489 46.808758,129.447952 47.156612,129.216415 
	C49.732483,130.550674 52.308353,131.884918 55.600315,133.590088 
	C54.601269,137.705841 54.003971,141.996292 52.499428,145.940689 
	C50.176937,152.029480 43.731327,155.142807 37.021900,154.071381 
	C28.900850,152.774521 21.956062,146.447815 21.967693,139.151871 
	C21.974541,134.856567 23.809307,130.564194 24.959452,125.928741 
z"/>
<path fill="#FF6B12" opacity="1.000000" stroke="none" 
	d="
M145.838058,47.933197 
	C142.766220,46.990921 139.972321,46.375134 137.438187,45.199463 
	C132.209412,42.773666 131.234192,37.173450 135.074554,32.840111 
	C138.584747,28.879313 142.644089,27.452076 151.054962,27.440983 
	C151.054962,30.640690 151.054962,33.827820 151.054962,37.014950 
	C150.656006,37.144115 150.257065,37.273281 149.858109,37.402443 
	C148.303696,33.975422 146.858826,30.102448 142.177780,32.196621 
	C140.541809,32.928516 138.170624,34.675159 138.220398,35.871651 
	C138.288895,37.518318 140.011505,39.742455 141.611481,40.532684 
	C144.228714,41.825329 147.346252,42.068409 150.201370,42.925392 
	C153.665466,43.965160 156.653763,45.544262 157.115829,49.752277 
	C157.571472,53.901844 155.795609,57.064392 152.401382,58.932999 
	C149.704926,60.417461 146.583008,61.428646 143.533600,61.905109 
	C138.436447,62.701530 134.964294,57.622063 137.079498,52.799248 
	C137.270004,52.364876 138.145584,52.230965 139.061020,51.781891 
	C140.357330,55.823330 142.174149,59.561424 147.010727,57.793064 
	C148.991852,57.068722 151.393280,54.877785 151.786133,52.978165 
	C152.568619,49.194599 148.789520,48.951378 145.838058,47.933197 
z"/>
<path fill="#FE6F19" opacity="1.000000" stroke="none" 
	d="
M285.544006,86.574127 
	C283.815186,88.405006 282.193787,89.875282 280.922546,91.603157 
	C280.229950,92.544518 279.921112,93.906212 279.825378,95.109062 
	C279.733551,96.262543 280.140839,97.455734 280.328796,98.631470 
	C279.147705,97.957191 277.840088,97.434875 276.811005,96.578056 
	C274.428101,94.594116 272.179901,92.448326 268.485046,89.110710 
	C276.967743,90.716667 280.057892,85.261566 283.594238,81.079201 
	C286.881531,77.191360 293.306641,74.798584 292.137054,66.679184 
	C295.277008,69.521126 298.416962,72.363075 301.556915,75.205025 
	C293.267029,75.262985 290.736420,82.534592 285.544006,86.574127 
z"/>
<path fill="#FE8136" opacity="1.000000" stroke="none" 
	d="
M73.007721,302.967651 
	C72.697998,302.600739 72.458046,302.111328 72.066399,301.888306 
	C70.424843,300.953461 68.737892,300.098358 67.067566,299.214050 
	C68.782158,297.158569 70.288490,294.842346 72.337700,293.205872 
	C72.955917,292.712189 75.081100,294.105560 76.515976,294.634521 
	C75.953026,295.909637 75.456497,297.219696 74.808990,298.450317 
	C74.120934,299.757996 73.289703,300.990356 72.752319,302.619385 
	C72.983643,302.983154 73.007721,302.967651 73.007721,302.967651 
z"/>
<path fill="#FE7827" opacity="1.000000" stroke="none" 
	d="
M123.963120,336.590240 
	C125.150230,335.282471 126.337341,333.974731 128.308289,331.803467 
	C129.320480,332.688141 131.927841,333.899994 132.016342,335.274048 
	C132.183365,337.867035 131.625031,341.079987 127.325157,340.601898 
	C126.430473,340.502441 125.372551,341.871094 123.597206,343.121399 
	C124.074532,340.600128 124.414459,338.804626 124.361649,336.772034 
	C123.968910,336.534973 123.963120,336.590240 123.963120,336.590240 
z"/>
<path fill="#FE7B2C" opacity="1.000000" stroke="none" 
	d="
M204.538116,344.751831 
	C202.364243,345.563721 200.546082,346.422974 198.132828,347.563446 
	C197.841415,345.335968 197.353790,342.407623 197.187561,339.461151 
	C197.163132,339.028015 199.269531,337.987885 199.371140,338.105865 
	C201.723999,340.838593 203.935883,343.692749 205.989334,346.651428 
	C205.624161,346.034027 205.258987,345.416626 204.538116,344.751831 
z"/>
<path fill="#FE7523" opacity="1.000000" stroke="none" 
	d="
M279.712372,306.048553 
	C279.797516,307.168121 280.049164,308.306244 279.927246,309.402771 
	C279.760773,310.900238 279.621033,312.578186 278.828156,313.741364 
	C278.509918,314.208252 275.924194,313.962219 275.361755,313.253784 
	C274.247986,311.850861 273.561157,309.938202 273.305389,308.149353 
	C273.244171,307.721344 275.518219,306.777924 276.814362,306.411224 
	C277.498535,306.217621 278.389832,306.756042 279.494537,306.560974 
	C279.801453,306.157959 279.712372,306.048553 279.712372,306.048553 
z"/>
<path fill="#FE7523" opacity="1.000000" stroke="none" 
	d="
M296.054413,284.002258 
	C296.811768,283.678650 297.318573,283.340332 297.741852,283.424072 
	C300.816589,284.032349 303.080078,285.665710 302.401428,289.053864 
	C302.227722,289.920898 299.544586,291.206635 298.613098,290.827789 
	C295.820984,289.692230 293.224152,287.869751 296.054413,284.002258 
z"/>
<path fill="#FF6D14" opacity="1.000000" stroke="none" 
	d="
M26.212021,194.629608 
	C27.652134,193.154999 29.038074,191.577377 30.715370,191.153976 
	C31.425009,190.974838 33.472176,193.158707 33.580612,194.386139 
	C33.682392,195.538162 31.705803,198.012192 31.206242,197.873825 
	C29.432825,197.382568 27.899769,196.023590 26.212021,194.629608 
z"/>
<path fill="#FF6B12" opacity="1.000000" stroke="none" 
	d="
M327.572296,197.210434 
	C325.925323,194.193924 326.013824,191.605743 329.572021,191.159256 
	C330.821228,191.002502 333.113281,192.765549 333.585968,194.120544 
	C334.620331,197.085663 332.039642,198.477493 327.572296,197.210434 
z"/>
<path fill="#FE7827" opacity="1.000000" stroke="none" 
	d="
M156.558044,342.438690 
	C156.976654,341.517639 157.395264,340.596558 157.813873,339.675507 
	C158.103943,339.713318 158.394028,339.751129 158.684097,339.788940 
	C158.821457,341.550964 158.958801,343.312988 159.555542,345.179077 
	C160.014923,345.283112 160.054398,345.153534 160.054398,345.153564 
	C159.513260,345.299927 158.934036,345.367767 158.438370,345.608002 
	C157.149231,346.232849 155.948135,347.190704 154.600952,347.459534 
	C154.149902,347.549561 152.768066,345.896912 152.845520,345.147644 
	C153.050949,343.160126 153.820496,341.230896 154.365601,339.278473 
	C154.697144,339.833832 155.028687,340.389160 155.266754,341.595886 
	C155.173294,343.350281 155.173294,344.453339 155.173294,345.556366 
	C155.423294,345.570984 155.673294,345.585602 155.923294,345.600220 
	C156.134872,344.546356 156.346451,343.492523 156.558044,342.438690 
z"/>
<path fill="#FE8136" opacity="1.000000" stroke="none" 
	d="
M87.151993,313.233948 
	C88.476021,311.590179 89.021088,309.048615 91.627327,311.585968 
	C95.861580,315.708282 90.061943,316.813782 90.229172,320.227753 
	C88.068222,318.606689 86.735123,317.606689 85.059258,316.349518 
	C85.589218,315.571686 86.280190,314.557526 87.151993,313.233948 
M90.881516,313.793335 
	C90.470070,313.931305 90.058632,314.069275 89.647179,314.207245 
	C90.017502,314.305756 90.387825,314.404266 90.881516,313.793335 
M89.059624,315.510010 
	C88.863785,315.446960 88.667938,315.383911 88.472099,315.320862 
	C88.542068,315.523804 88.612038,315.726776 89.059624,315.510010 
z"/>
<path fill="#FE7827" opacity="1.000000" stroke="none" 
	d="
M280.017853,306.294769 
	C279.712372,306.048553 279.801453,306.157959 279.830933,306.177429 
	C279.900574,304.304321 279.940765,302.411713 279.980927,300.519104 
	C280.616730,300.381317 281.252502,300.243561 281.888306,300.105774 
	C283.782257,301.877075 285.676208,303.648346 287.754730,305.592255 
	C285.924683,306.418732 284.688354,306.977081 283.451996,307.535431 
	C283.463562,308.064575 283.475128,308.593719 283.486694,309.122864 
	C282.432251,308.262238 281.377808,307.401611 280.017853,306.294769 
z"/>
<path fill="#FE8136" opacity="1.000000" stroke="none" 
	d="
M324.446014,240.173935 
	C322.703827,239.641861 321.328888,239.207596 319.757263,238.711212 
	C320.205872,236.908844 320.583740,235.390594 321.112457,233.266373 
	C323.880859,234.079407 326.314423,234.794098 328.747986,235.508789 
	C328.640137,235.978104 328.532318,236.447418 328.424500,236.916718 
	C326.483643,236.630417 324.542755,236.344116 322.601898,236.057800 
	C322.505585,236.285629 322.409302,236.513458 322.312988,236.741287 
	C324.128510,237.623932 325.944031,238.506577 327.759552,239.389221 
	C327.715271,239.683395 327.671021,239.977585 327.626770,240.271759 
	C326.688904,240.271759 325.751068,240.271759 324.446014,240.173935 
z"/>
<path fill="#FE7B2C" opacity="1.000000" stroke="none" 
	d="
M160.106049,345.570404 
	C160.054398,345.153534 160.014923,345.283112 160.005585,345.314880 
	C161.215408,344.620422 162.434570,343.894226 164.049881,342.932068 
	C163.179581,342.368927 162.478256,341.915161 160.949371,340.925903 
	C162.506226,340.741913 164.076096,340.346405 164.174286,340.577148 
	C165.184097,342.950043 165.955643,345.424316 166.793610,347.870300 
	C166.230988,348.382965 165.668365,348.895630 165.105728,349.408295 
	C163.456390,348.267944 161.807053,347.127625 160.106049,345.570404 
z"/>
<path fill="#FE8136" opacity="1.000000" stroke="none" 
	d="
M103.560081,326.309570 
	C101.785828,326.810974 100.147064,326.974487 98.508301,327.138031 
	C98.367287,326.610321 98.226273,326.082611 98.085258,325.554932 
	C101.567307,325.538269 99.163406,317.092804 105.315231,320.656494 
	C104.695847,322.689117 104.195709,324.330414 103.560081,326.309570 
M100.584381,325.009308 
	C100.704941,325.120453 100.825508,325.231567 100.584381,325.009308 
z"/>
<path fill="#FE7F32" opacity="1.000000" stroke="none" 
	d="
M47.062416,257.583405 
	C45.038876,258.884369 43.194672,259.906281 40.384750,261.463287 
	C40.048813,259.119202 39.783630,257.268829 39.518444,255.418472 
	C41.188515,255.571808 42.858582,255.725143 45.049934,255.926346 
	C45.030872,255.963028 45.439304,255.176956 46.269894,253.578369 
	C46.728550,255.336792 46.985149,256.320557 47.062416,257.583405 
z"/>
<path fill="#FE8136" opacity="1.000000" stroke="none" 
	d="
M80.969559,306.064819 
	C82.326759,306.143524 83.683960,306.222260 85.354469,306.319153 
	C85.354469,307.809052 85.354469,309.367126 85.354469,311.347900 
	C84.360100,311.304382 83.355232,311.260406 81.958382,311.199249 
	C82.324196,312.097443 82.680687,312.972687 83.156502,314.140930 
	C82.392555,314.043610 81.632347,314.175293 81.213692,313.857269 
	C77.833710,311.289795 80.382065,308.966705 81.303207,306.315552 
	C81.008492,306.035339 80.969559,306.064819 80.969559,306.064819 
z"/>
<path fill="#FD8B46" opacity="1.000000" stroke="none" 
	d="
M180.845840,348.697479 
	C179.871384,349.014771 178.128021,349.086975 178.083893,348.846893 
	C177.520401,345.781128 177.200378,342.670624 176.818497,339.571472 
	C177.658966,339.444031 178.499420,339.316559 179.339890,339.189117 
	C179.530411,340.583435 179.685699,341.983704 179.920547,343.370514 
	C180.200256,345.022095 180.548264,346.662170 180.845840,348.697479 
z"/>
<path fill="#FE7827" opacity="1.000000" stroke="none" 
	d="
M186.823685,344.272003 
	C187.388000,347.658600 186.973083,350.554596 184.010986,352.306702 
	C183.424088,348.602264 182.878082,345.155975 182.316711,341.612701 
	C183.853241,342.516296 185.195267,343.305481 186.823685,344.272003 
z"/>
<path fill="#FE8136" opacity="1.000000" stroke="none" 
	d="
M54.410431,271.470612 
	C54.680294,272.192566 54.950161,272.914490 55.220032,273.636475 
	C52.783306,274.159058 50.346573,274.681641 47.909843,275.204224 
	C47.624836,274.761322 47.339828,274.318420 47.054821,273.875519 
	C48.851604,271.965637 50.648384,270.055725 52.445168,268.145813 
	C52.789734,268.688507 53.134300,269.231201 53.104031,270.211212 
	C52.582890,271.019409 52.436584,271.390259 52.290276,271.761139 
	C52.996994,271.664307 53.703712,271.567474 54.410431,271.470612 
z"/>
<path fill="#FE7F32" opacity="1.000000" stroke="none" 
	d="
M170.771454,348.938721 
	C169.811066,348.864838 168.339615,348.415436 168.346039,347.988251 
	C168.397324,344.574738 168.728333,341.165405 168.973648,337.754791 
	C169.630814,337.781189 170.287979,337.807587 170.945145,337.834015 
	C170.945145,341.413849 170.945145,344.993683 170.771454,348.938721 
z"/>
<path fill="#FD8B46" opacity="1.000000" stroke="none" 
	d="
M60.858158,280.986908 
	C61.228359,282.116241 61.595478,283.246552 61.969757,284.374542 
	C62.257378,285.241364 62.554008,286.105194 63.115143,287.764191 
	C60.907951,288.628601 58.279606,289.657928 54.642521,291.082336 
	C57.085506,287.183075 58.811707,284.427887 60.509201,281.321838 
	C60.480499,280.971008 60.858158,280.986908 60.858158,280.986908 
z"/>
<path fill="#FE7B2C" opacity="1.000000" stroke="none" 
	d="
M123.872940,336.175232 
	C123.963120,336.590240 123.968910,336.534973 123.988785,336.516327 
	C122.220985,336.826538 120.433311,337.155365 118.645638,337.484222 
	C118.569405,336.937836 118.493172,336.391418 118.416939,335.845001 
	C119.489166,335.679718 120.561401,335.514435 121.566628,335.359497 
	C121.055420,332.770905 120.608170,330.506165 120.160919,328.241425 
	C120.923172,328.139832 121.685425,328.038208 122.212860,327.967896 
	C122.773674,330.751526 123.278214,333.255890 123.872940,336.175232 
z"/>
<path fill="#FE7F32" opacity="1.000000" stroke="none" 
	d="
M81.023773,306.016357 
	C80.093613,305.905212 79.148170,305.813080 78.393112,305.235352 
	C78.547333,304.263306 78.511162,303.776825 78.474991,303.290344 
	C78.076859,303.686371 77.678726,304.082397 77.280602,304.478424 
	C76.110199,305.234161 74.939804,305.989899 72.965034,307.265015 
	C73.334183,305.372559 73.524284,304.397980 73.361053,303.195526 
	C73.007721,302.967651 72.983643,302.983154 72.975609,302.994995 
	C74.580055,302.311462 76.192535,301.616058 78.859970,300.465698 
	C79.415489,301.765839 80.195900,303.592346 80.972931,305.741821 
	C80.969559,306.064819 81.008492,306.035339 81.023773,306.016357 
z"/>
<path fill="#FE7B2C" opacity="1.000000" stroke="none" 
	d="
M265.536041,312.685425 
	C267.604584,314.923645 269.323547,317.000519 271.990692,320.222992 
	C270.060547,319.788208 267.763153,319.675568 267.678619,319.183105 
	C267.263153,316.762939 261.196350,316.405518 265.536041,312.685425 
z"/>
<path fill="#FE7F32" opacity="1.000000" stroke="none" 
	d="
M32.208153,236.344177 
	C37.501713,232.337616 39.484322,232.336319 42.328728,236.521591 
	C38.389015,235.837189 34.162884,234.148849 32.270561,239.919571 
	C32.199741,238.837616 32.128922,237.755646 32.208153,236.344177 
z"/>
<path fill="#FE833A" opacity="1.000000" stroke="none" 
	d="
M61.003590,280.654694 
	C60.858158,280.986908 60.480499,280.971008 60.291527,280.969177 
	C58.255287,282.012451 56.408016,283.057587 53.917313,284.466736 
	C54.183899,283.319794 54.073715,281.773468 54.759277,281.228882 
	C56.696754,279.689819 58.960495,278.561493 61.095680,277.271301 
	C61.113457,278.288361 61.131241,279.305420 61.003590,280.654694 
z"/>
<path fill="#FE7B2C" opacity="1.000000" stroke="none" 
	d="
M320.385651,254.936371 
	C320.666901,255.592834 320.621246,256.376099 320.575623,257.159363 
	C317.642273,256.409393 314.708954,255.659393 311.775604,254.909409 
	C312.028412,254.110596 312.281189,253.311783 312.533997,252.512985 
	C315.042236,253.363037 317.550507,254.213104 320.385651,254.936371 
z"/>
<path fill="#FE833A" opacity="1.000000" stroke="none" 
	d="
M311.323608,259.157715 
	C311.772491,258.194916 312.210571,257.579681 313.312622,256.031921 
	C313.065460,261.843475 315.681427,261.826721 319.640503,261.017456 
	C318.636414,261.965088 317.075958,263.897491 316.720612,263.696777 
	C314.755798,262.586731 313.084595,260.956940 311.323608,259.157715 
z"/>
<path fill="#C16A04" opacity="1.000000" stroke="none" 
	d="
M189.417191,180.323898 
	C189.216339,179.189468 188.753616,178.312592 188.153336,177.175079 
	C188.435349,176.866943 189.242264,175.985260 190.049179,175.103592 
	C189.890427,174.865936 189.731689,174.628281 189.572952,174.390625 
	C185.486481,175.975311 181.212738,177.227066 177.431335,179.354111 
	C176.342377,179.966629 176.443726,183.094986 176.392700,185.079987 
	C176.221649,191.734879 176.567795,198.425537 175.960464,205.033066 
	C175.777908,207.019333 173.283615,210.085770 171.570358,210.286682 
	C169.741058,210.501175 166.704773,208.345123 165.769455,206.447891 
	C164.279327,203.425278 166.519638,201.203506 169.480804,200.057632 
	C170.230591,199.767471 171.044357,199.642700 172.327805,199.314194 
	C172.327805,193.674713 172.516342,188.050262 172.262207,182.445892 
	C172.089844,178.644684 173.006851,176.253052 177.016800,175.031342 
	C181.275711,173.733780 185.334641,171.752167 189.429367,169.952026 
	C192.831284,168.456467 194.035339,169.837906 194.031067,173.144119 
	C194.021164,180.796600 193.987076,188.449432 194.047943,196.101456 
	C194.077591,199.825516 193.083130,203.229584 188.885193,203.046951 
	C186.886368,202.959991 183.771545,200.692108 183.310638,198.869003 
	C182.343765,195.044617 184.983810,192.789017 188.890411,192.281662 
	C189.198196,192.241684 189.479324,191.996384 189.975555,191.743011 
	C189.533035,188.208099 191.941681,184.082962 187.797150,181.169922 
	C188.249878,180.973770 188.702591,180.777603 189.417191,180.323898 
z"/>
<path fill="#B56408" opacity="1.000000" stroke="none" 
	d="
M216.255341,204.147278 
	C220.015427,199.177277 222.297180,193.857697 221.408875,188.066330 
	C220.602966,182.812119 218.531036,177.752106 217.658569,172.378616 
	C222.715012,176.498032 224.619385,182.022461 224.896255,188.228836 
	C225.198441,195.002808 222.976990,201.003357 218.769043,206.241165 
	C218.189896,206.962082 216.890259,207.104172 215.924164,207.514221 
	C215.971695,206.495148 216.019226,205.476089 216.255341,204.147278 
z"/>
<path fill="#B76508" opacity="1.000000" stroke="none" 
	d="
M141.976883,192.517303 
	C143.981354,197.748932 145.946243,202.547913 147.911133,207.346893 
	C140.447357,203.296753 138.517776,196.370758 138.469589,189.119614 
	C138.426605,182.647995 139.935822,176.257751 145.927170,171.735580 
	C144.517395,178.925705 143.227356,185.505173 141.976883,192.517303 
z"/>
<path fill="#BE6805" opacity="1.000000" stroke="none" 
	d="
M217.211304,193.055969 
	C215.859375,197.583801 214.923737,202.013611 208.424942,203.660294 
	C209.296051,201.163391 209.539581,199.613846 210.311310,198.400162 
	C213.728073,193.026672 214.087738,187.647629 211.215317,181.888611 
	C210.562363,180.579483 211.038574,178.707153 210.995026,177.094055 
	C212.451309,178.110397 214.832092,178.874207 215.191544,180.190170 
	C216.295273,184.230881 216.624512,188.483154 217.211304,193.055969 
z"/>
<path fill="#C36A04" opacity="1.000000" stroke="none" 
	d="
M150.040833,188.992340 
	C151.310501,192.763855 152.650040,196.102570 153.821823,199.499130 
	C154.141861,200.426819 153.957932,201.528366 154.005295,202.550110 
	C152.846359,202.380371 151.336716,202.620041 150.584457,201.975586 
	C144.984528,197.178314 144.109421,184.056976 149.007660,178.572632 
	C149.742798,177.749527 151.200623,177.571854 152.324127,177.095612 
	C152.455124,178.276108 152.924957,179.542984 152.650421,180.620132 
	C151.962433,183.319641 150.937378,185.933258 150.040833,188.992340 
z"/>
<path fill="#BD6806" opacity="1.000000" stroke="none" 
	d="
M209.744766,193.680481 
	C208.937408,195.174805 208.539932,196.751175 207.549347,197.355759 
	C206.358627,198.082489 204.663116,197.982132 203.186172,198.239868 
	C203.064529,196.926407 202.773453,195.602234 202.855530,194.301636 
	C203.042084,191.345474 203.308517,188.385162 203.752533,185.458420 
	C203.963715,184.066299 204.655151,182.747040 205.129044,181.394775 
	C206.394684,182.151688 208.520645,182.698776 208.765930,183.704544 
	C209.525711,186.819977 209.569946,190.109894 209.744766,193.680481 
z"/>
<path fill="#AF610A" opacity="1.000000" stroke="none" 
	d="
M228.410492,178.916351 
	C227.492691,176.919144 226.719818,175.298355 225.946945,173.677567 
	C226.394852,173.372742 226.842773,173.067917 227.290680,172.763092 
	C228.455719,174.977463 230.011841,177.074112 230.719925,179.426071 
	C234.297867,191.310257 230.609863,205.655243 222.030762,211.753036 
	C228.780197,201.768890 232.303375,191.195206 228.410492,178.916351 
z"/>
<path fill="#BD6806" opacity="1.000000" stroke="none" 
	d="
M159.918411,184.227676 
	C160.026215,187.764740 160.235367,190.899017 160.280350,194.035629 
	C160.301102,195.482925 160.000946,196.934830 159.846283,198.384644 
	C158.487244,197.929962 156.722748,197.866241 155.840775,196.951569 
	C152.386017,193.368515 152.048370,187.201111 154.892593,183.221298 
	C156.842209,180.493286 158.704956,179.959702 159.918411,184.227676 
z"/>
<path fill="#C16A04" opacity="1.000000" stroke="none" 
	d="
M135.382294,201.384979 
	C136.776550,204.278915 138.027130,206.801208 139.749817,210.275620 
	C131.663818,205.255234 129.378387,185.580658 134.197845,178.725891 
	C133.934937,181.134720 133.538589,183.538452 133.446304,185.953796 
	C133.352295,188.414413 133.379196,190.908463 133.680283,193.347488 
	C133.998764,195.927582 134.702942,198.460052 135.382294,201.384979 
z"/>
<path fill="#F9F8F7" opacity="1.000000" stroke="none" 
	d="
M69.364426,71.880371 
	C72.146111,67.010300 76.038216,66.127090 80.628410,67.764069 
	C86.377907,69.814476 89.879028,74.228424 91.597992,79.819283 
	C93.352402,85.525391 87.856232,91.044815 81.757774,90.088959 
	C74.977821,89.026268 66.101837,79.639572 69.364426,71.880371 
z"/>
<path fill="#F9F9F8" opacity="1.000000" stroke="none" 
	d="
M156.292007,342.224335 
	C156.346451,343.492523 156.134872,344.546356 155.923294,345.600220 
	C155.673294,345.585602 155.423294,345.570984 155.173294,345.556366 
	C155.173294,344.453339 155.173294,343.350281 155.331757,341.916565 
	C155.668793,341.727234 155.847382,341.868591 156.292007,342.224335 
z"/>
<path fill="#F9F9F8" opacity="1.000000" stroke="none" 
	d="
M90.819832,314.148041 
	C90.387825,314.404266 90.017502,314.305756 89.647186,314.207275 
	C90.058632,314.069275 90.470070,313.931305 90.819832,314.148041 
z"/>
<path fill="#F9F9F8" opacity="1.000000" stroke="none" 
	d="
M88.870819,315.719849 
	C88.612038,315.726776 88.542068,315.523804 88.472099,315.320862 
	C88.667938,315.383911 88.863785,315.446960 88.870819,315.719849 
z"/>
<path fill="#F9F9F8" opacity="1.000000" stroke="none" 
	d="
M100.765228,325.176025 
	C100.825508,325.231567 100.704941,325.120453 100.765228,325.176025 
z"/>
<path fill="#F9F9F8" opacity="1.000000" stroke="none" 
	d="
M54.130611,271.171814 
	C53.703712,271.567474 52.996994,271.664307 52.290276,271.761139 
	C52.436584,271.390259 52.582890,271.019409 52.980064,270.493317 
	C53.437557,270.516418 53.644176,270.694702 54.130611,271.171814 
z"/>
<path fill="#F9F9F8" opacity="1.000000" stroke="none" 
	d="
M77.456268,304.625244 
	C77.678726,304.082397 78.076859,303.686371 78.474991,303.290344 
	C78.511162,303.776825 78.547333,304.263306 78.301727,304.882446 
	C78.019943,305.015106 77.631927,304.772034 77.456268,304.625244 
z"/>
</svg>